<svg viewBox="0 -500 1871 1726" fill="none" xmlns="http://www.w3.org/2000/svg">
<path fill-rule="evenodd" clip-rule="evenodd" d="M463.495 0.42106C461.295 0.64606 454.995 1.28306 449.495 1.83506C388.148 7.99606 324.596 35.7301 272.82 78.9361C200.686 139.13 151.91 227.446 135.088 328.32C131.285 351.123 129.857 367.423 129.305 394.32C128.491 434.004 131.727 466.585 140.03 502.32C145.217 524.644 145.762 526.555 152.286 545.32C173.332 605.845 204.582 654.776 248.22 695.534C289.933 734.494 345.161 763.767 404.326 778.277C448.925 789.215 490.549 793.46 543.995 792.52C642.959 790.782 745.4 769.538 872.995 724.294C884.27 720.296 921.78 706.614 956.352 693.889C1113.8 635.937 1189.77 612.538 1279.49 594.353C1344.72 581.134 1390.88 575.935 1450.43 575.096C1517.15 574.157 1565.86 579.078 1597.93 589.995C1656.84 610.051 1707.91 641.199 1750.87 683.265C1779.2 711.009 1798.69 735.705 1819.39 770.093C1831.05 789.463 1841.5 810.358 1852.84 836.943L1854.81 841.566L1862.38 839.384C1866.54 838.183 1870.23 836.921 1870.57 836.578C1871.42 835.73 1866.39 805.621 1863.39 793.573C1845.99 723.727 1810.09 664.125 1757.63 617.999C1717.35 582.583 1670.1 556.017 1610.49 535.283C1600.59 531.839 1584.15 526.095 1573.95 522.518C1424.68 470.163 1220.59 472.835 1016.49 529.814C890.662 564.944 800.679 583.787 728.995 590.019C708.13 591.832 665.052 591.538 645.995 589.452C598.812 584.288 556.763 569.396 536.422 550.647C516.597 532.373 502.662 498.345 504.346 472.32C505.836 449.282 514.656 430.492 532.93 411.43C548.717 394.963 567.795 386.69 589.979 386.69C601.764 386.69 607.046 387.891 617.995 393.063C624.947 396.346 627.952 398.56 634.495 405.216C640.886 411.718 648.437 422.142 650.227 426.931C650.374 427.325 654.394 427.4 659.161 427.098L667.828 426.548L669.057 418.283C669.8 413.289 670.061 405.724 669.714 399.169C668.16 369.749 653.642 344.252 627.023 324.194C617.347 316.904 600.303 308.102 588.56 304.331C554.919 293.528 515.774 294.714 482.557 307.542C412.739 334.506 365.191 392.651 351.898 467.32C349.21 482.416 348.185 515.569 349.932 530.933C352.232 551.163 357.445 572.486 364.438 590.263L367.956 599.206L362.892 594.263C339.723 571.646 319.952 535.127 308.54 493.872C299.475 461.103 296.493 435.935 297.337 399.32C298.281 358.388 303.538 327.119 315.507 291.249C336.808 227.406 375.182 178.602 427.354 149.003C459.453 130.792 489.999 122.813 527.495 122.843C581.7 122.887 627.896 141.748 662.495 177.961C692.705 209.58 711.33 250.027 716.076 294.32C717.065 303.546 716.876 326.937 715.736 336.3C715.537 337.936 716.871 338.766 723.396 341.065C727.742 342.596 731.403 343.73 731.531 343.585C731.658 343.439 733.66 339.527 735.979 334.892C768.265 270.365 760.48 184.761 716.19 117.286C700.088 92.7541 681.084 72.6941 657.214 55.0311C619.827 27.3661 572.926 9.00406 522.495 2.29006C511.113 0.77506 472.102 -0.46094 463.495 0.42106ZM11.4815 496.07C8.2765 504.964 2.5985 536.343 1.0325 553.82C-1.3175 580.031 0.479504 622.913 5.0475 649.629C20.3145 738.935 62.7955 821.885 127.425 888.591C177.314 940.084 237.326 977.289 307.889 1000.47C400.471 1030.89 502.617 1033.96 617.318 1009.76C701.089 992.084 809.299 956.656 926.495 908.533C987.956 883.296 1021.64 866.715 1130.99 807.866C1299.87 716.99 1386.06 682.746 1475.99 670.797C1496.15 668.12 1532.69 667.117 1550.99 668.741C1615.87 674.496 1675.51 700.046 1727.97 744.556C1732.66 748.535 1736.73 751.798 1737.03 751.806C1737.32 751.814 1740.21 749.143 1743.44 745.872L1749.33 739.923L1743.43 733.122C1720.94 707.165 1689.32 680.277 1660.99 663.023C1580.2 613.804 1481.96 601.894 1358.99 626.409C1283.36 641.487 1212.53 665.781 1055.99 730.326C963.105 768.628 931.076 780.745 881.995 796.152C793.038 824.076 735.354 838.828 676.216 848.779C554.566 869.248 431.321 864.629 332.086 835.881C268.459 817.449 213.644 783.82 160.989 730.914C99.8255 669.46 57.8335 597.225 33.4785 511.57L28.7155 494.82H20.3235C14.5175 494.82 11.7925 495.205 11.4815 496.07Z" fill="#50BFEF"/>
<path fill-rule="evenodd" clip-rule="evenodd" d="M457.995 0.859112C427.996 3.44011 398.96 10.2551 370.918 21.2991C336.102 35.0101 310.486 49.5311 282.052 71.6761C194.624 139.765 139.34 248.526 130.02 370.77C128.698 388.117 128.707 420.971 130.039 437.425C133.129 475.599 140.885 512.655 152.937 546.82C191.974 657.484 268.9 734.404 375.995 769.86C422.94 785.402 472.978 792.786 531.512 792.81C620.791 792.847 719.349 775.032 830.456 738.773C856.969 730.121 884.837 720.171 953.495 694.843C1094.83 642.704 1165.86 620.086 1246.99 601.379C1324.39 583.534 1382.25 576.04 1449.99 575.087C1516.9 574.145 1568.75 579.391 1599.14 590.177C1679.73 618.774 1742.93 664.372 1792.26 729.51C1815.64 760.385 1840.74 805.058 1854.06 839.53L1854.91 841.74L1860.61 839.78C1863.74 838.702 1867.15 837.82 1868.18 837.82C1869.21 837.82 1870.29 837.201 1870.58 836.445C1870.87 835.689 1869.74 827.088 1868.05 817.331C1855.62 745.275 1823.92 683.745 1773 632.817C1737.7 597.522 1696.45 570.433 1643.49 547.784C1632.73 543.179 1605.29 533.302 1568.49 520.79C1514.68 502.488 1457.15 491.76 1385.49 486.657C1363.69 485.105 1292.72 485.102 1269.99 486.652C1180.62 492.751 1099.85 506.48 1016.99 529.657C889.759 565.249 804.935 583.073 729.995 589.963C712.35 591.586 666.867 591.6 650.995 589.988C624.509 587.297 603.275 582.976 583.995 576.352C569.319 571.31 548.771 560.924 540.701 554.469C526.411 543.038 512.85 521.027 507.342 500.32C503.751 486.824 503.546 467.524 506.863 455.32C514.047 428.894 535.105 403.179 557.771 393.155C571.768 386.965 592.663 384.856 605.914 388.296C613.897 390.369 622.872 394.8 629.786 400.083C635.596 404.523 645.416 416.912 648.385 423.545L650.276 427.771L657.885 427.211C662.07 426.903 666.011 426.496 666.643 426.306C668.69 425.691 670.28 412.019 669.721 399.846C668.063 363.725 645.455 331.638 608.354 312.749C570.757 293.607 523.222 291.801 481.805 307.942C424.642 330.219 380.566 375.548 361.148 432.028C352.648 456.752 348.995 479.089 348.995 506.32C348.995 537.591 354.111 564.01 365.941 593.82L368.125 599.32L361.966 593.32C328.114 560.333 304.019 500.951 297.902 435.434C296.258 417.828 297.3 379.025 299.949 359.119C310.928 276.623 345.988 208.945 399.124 167.673C427.85 145.361 456.883 132.012 490.428 125.694C504.373 123.067 536.184 122.031 550.615 123.733C583.139 127.568 612.148 138.269 636.611 155.453C650.062 164.902 670.941 185.626 680.016 198.536C697.861 223.919 708.965 250.947 714.645 282.82C716.31 292.163 717.064 318.649 716.054 332.267L715.612 338.214L723.054 340.965C727.146 342.478 730.762 343.739 731.089 343.768C732.161 343.862 741.764 322.539 745.45 311.878C752.683 290.963 756.933 259.205 755.563 236.32C751.681 171.443 722.155 111.066 673.401 68.3041C633.026 32.8901 579.86 9.73011 521.854 2.28711C506.991 0.380112 472.528 -0.390888 457.995 0.859112ZM11.4815 496.07C8.2765 504.964 2.5985 536.343 1.0325 553.82C-1.3175 580.031 0.479504 622.913 5.0475 649.629C20.3145 738.935 62.7955 821.885 127.425 888.591C177.314 940.084 237.326 977.289 307.889 1000.47C400.471 1030.89 502.617 1033.96 617.318 1009.76C701.089 992.084 809.299 956.656 926.495 908.533C987.956 883.296 1021.64 866.715 1130.99 807.866C1299.87 716.99 1386.06 682.746 1475.99 670.797C1496.15 668.12 1532.69 667.117 1550.99 668.741C1615.87 674.496 1675.51 700.046 1727.97 744.556C1732.66 748.535 1736.73 751.798 1737.03 751.806C1737.32 751.814 1740.21 749.143 1743.44 745.872L1749.33 739.923L1743.43 733.122C1720.94 707.165 1689.32 680.277 1660.99 663.023C1580.2 613.804 1481.96 601.894 1358.99 626.409C1283.36 641.487 1212.53 665.781 1055.99 730.326C963.105 768.628 931.076 780.745 881.995 796.152C793.038 824.076 735.354 838.828 676.216 848.779C554.566 869.248 431.321 864.629 332.086 835.881C268.459 817.449 213.644 783.82 160.989 730.914C99.8255 669.46 57.8335 597.225 33.4785 511.57L28.7155 494.82H20.3235C14.5175 494.82 11.7925 495.205 11.4815 496.07Z" fill="#29A7E0"/>
<path fill-rule="evenodd" clip-rule="evenodd" d="M457.994 0.859112C427.995 3.44011 398.959 10.2551 370.917 21.2991C336.101 35.0101 310.485 49.5311 282.051 71.6761C194.623 139.765 139.339 248.526 130.019 370.77C128.697 388.117 128.706 420.971 130.038 437.425C133.128 475.599 140.884 512.655 152.936 546.82C191.973 657.484 268.899 734.404 375.994 769.86C422.939 785.402 472.978 792.786 531.512 792.81C620.791 792.847 719.349 775.032 830.456 738.773C856.969 730.121 884.837 720.171 953.495 694.843C1094.83 642.704 1165.86 620.086 1246.99 601.379C1324.39 583.534 1382.25 576.04 1449.99 575.087C1516.9 574.145 1568.75 579.391 1599.14 590.177C1679.73 618.774 1742.93 664.372 1792.26 729.51C1815.64 760.385 1840.74 805.058 1854.06 839.53L1854.91 841.74L1860.61 839.78C1863.74 838.702 1867.15 837.82 1868.18 837.82C1869.21 837.82 1870.29 837.201 1870.58 836.445C1870.87 835.689 1869.74 827.088 1868.05 817.331C1855.62 745.275 1823.92 683.745 1773 632.817C1737.7 597.522 1696.45 570.433 1643.49 547.784C1632.73 543.179 1605.29 533.302 1568.49 520.79C1514.68 502.488 1457.15 491.76 1385.49 486.657C1363.69 485.105 1292.72 485.102 1269.99 486.652C1180.62 492.751 1099.85 506.48 1016.99 529.657C889.759 565.249 804.935 583.073 729.995 589.963C712.35 591.586 666.867 591.6 650.995 589.988C624.509 587.297 603.274 582.976 583.994 576.352C569.318 571.31 548.77 560.924 540.7 554.469C526.41 543.038 512.85 521.027 507.342 500.32C503.751 486.824 503.546 467.524 506.863 455.32C514.047 428.894 535.104 403.179 557.77 393.155C571.767 386.965 592.663 384.856 605.914 388.296C613.897 390.369 622.872 394.8 629.786 400.083C635.596 404.523 645.416 416.912 648.385 423.545L650.276 427.771L657.885 427.211C662.07 426.903 666.011 426.496 666.643 426.306C668.69 425.691 670.28 412.019 669.721 399.846C668.063 363.725 645.455 331.638 608.354 312.749C570.757 293.607 523.221 291.801 481.804 307.942C424.641 330.219 380.566 375.548 361.148 432.028C352.648 456.752 348.994 479.089 348.994 506.32C348.994 537.591 354.111 564.01 365.941 593.82L368.124 599.32L361.966 593.32C328.114 560.333 304.019 500.951 297.902 435.434C296.258 417.828 297.3 379.025 299.949 359.119C310.928 276.623 345.987 208.945 399.123 167.673C427.849 145.361 456.883 132.012 490.428 125.694C504.373 123.067 536.183 122.031 550.614 123.733C583.138 127.568 612.148 138.269 636.611 155.453C650.062 164.902 670.941 185.626 680.016 198.536C697.861 223.919 708.965 250.947 714.645 282.82C716.31 292.163 717.064 318.649 716.054 332.267L715.612 338.214L723.054 340.965C727.146 342.478 730.762 343.739 731.089 343.768C732.161 343.862 741.764 322.539 745.45 311.878C752.683 290.963 756.933 259.205 755.563 236.32C751.681 171.443 722.155 111.066 673.401 68.3041C633.026 32.8901 579.859 9.73011 521.853 2.28711C506.99 0.380112 472.527 -0.390888 457.994 0.859112ZM1699.99 691.198C1699.99 691.405 1700.78 692.193 1701.74 692.948C1703.33 694.191 1703.37 694.156 1702.12 692.57C1700.82 690.904 1699.99 690.375 1699.99 691.198ZM1708.49 698.82C1709.49 699.92 1710.53 700.82 1710.8 700.82C1711.08 700.82 1710.49 699.92 1709.49 698.82C1708.5 697.72 1707.46 696.82 1707.18 696.82C1706.91 696.82 1707.5 697.72 1708.49 698.82ZM135.994 705.198C135.994 705.405 136.781 706.193 137.744 706.948C139.33 708.191 139.365 708.156 138.122 706.57C136.815 704.904 135.994 704.375 135.994 705.198ZM1719.99 709.32C1721.86 711.245 1723.61 712.82 1723.89 712.82C1724.16 712.82 1722.86 711.245 1720.99 709.32C1719.13 707.395 1717.38 705.82 1717.1 705.82C1716.83 705.82 1718.13 707.395 1719.99 709.32ZM1728.95 718.07C1733.1 722.485 1733.99 723.279 1733.99 722.528C1733.99 722.368 1731.86 720.23 1729.24 717.778L1724.49 713.32L1728.95 718.07ZM153.994 725.095C153.994 725.246 157.482 728.734 161.744 732.845L169.494 740.32L162.019 732.57C155.076 725.372 153.994 724.364 153.994 725.095ZM1741.49 731.82C1742.49 732.92 1743.53 733.82 1743.8 733.82C1744.08 733.82 1743.49 732.92 1742.49 731.82C1741.5 730.72 1740.46 729.82 1740.18 729.82C1739.91 729.82 1740.5 730.72 1741.49 731.82ZM1722.99 740.198C1722.99 740.405 1723.78 741.193 1724.74 741.948C1726.33 743.191 1726.37 743.156 1725.12 741.57C1723.82 739.904 1722.99 739.375 1722.99 740.198ZM1730.49 746.82C1731.49 747.92 1732.53 748.82 1732.8 748.82C1733.08 748.82 1732.49 747.92 1731.49 746.82C1730.5 745.72 1729.46 744.82 1729.18 744.82C1728.91 744.82 1729.5 745.72 1730.49 746.82ZM178.494 748.82C179.489 749.92 180.529 750.82 180.804 750.82C181.079 750.82 180.489 749.92 179.494 748.82C178.499 747.72 177.459 746.82 177.184 746.82C176.909 746.82 177.499 747.72 178.494 748.82ZM191.994 760.198C191.994 760.405 192.781 761.193 193.744 761.948C195.33 763.191 195.365 763.156 194.122 761.57C192.815 759.904 191.994 759.375 191.994 760.198ZM111.494 871.82C112.489 872.92 113.529 873.82 113.804 873.82C114.079 873.82 113.489 872.92 112.494 871.82C111.499 870.72 110.459 869.82 110.184 869.82C109.909 869.82 110.499 870.72 111.494 871.82ZM118.994 880.198C118.994 880.405 119.781 881.193 120.744 881.948C122.33 883.191 122.365 883.156 121.122 881.57C119.815 879.904 118.994 879.375 118.994 880.198ZM122.994 884.133C122.994 884.305 124.457 885.768 126.244 887.383L129.494 890.32L126.557 887.07C123.819 884.041 122.994 883.36 122.994 884.133ZM139.494 900.82C142.203 903.57 144.644 905.82 144.919 905.82C145.194 905.82 143.203 903.57 140.494 900.82C137.785 898.07 135.344 895.82 135.069 895.82C134.794 895.82 136.785 898.07 139.494 900.82ZM157.994 917.198C157.994 917.405 158.781 918.193 159.744 918.948C161.33 920.191 161.365 920.156 160.122 918.57C158.815 916.904 157.994 916.375 157.994 917.198Z" fill="#2AA5DF"/>
<path fill-rule="evenodd" clip-rule="evenodd" d="M457.995 0.859112C427.996 3.44011 398.96 10.2551 370.918 21.2991C336.102 35.0101 310.486 49.5311 282.052 71.6761C194.624 139.765 139.34 248.526 130.02 370.77C128.698 388.117 128.707 420.971 130.039 437.425C133.129 475.599 140.885 512.655 152.937 546.82C191.974 657.484 268.9 734.404 375.995 769.86C422.94 785.402 472.978 792.786 531.512 792.81C620.791 792.847 719.349 775.032 830.456 738.773C856.969 730.121 884.837 720.171 953.495 694.843C1094.83 642.704 1165.86 620.086 1246.99 601.379C1324.39 583.534 1382.25 576.04 1449.99 575.087C1516.9 574.145 1568.75 579.391 1599.14 590.177C1679.73 618.774 1742.93 664.372 1792.26 729.51C1815.64 760.385 1840.74 805.058 1854.06 839.53L1854.91 841.74L1860.61 839.78C1863.74 838.702 1867.15 837.82 1868.18 837.82C1869.21 837.82 1870.29 837.201 1870.58 836.445C1870.87 835.689 1869.74 827.088 1868.05 817.331C1855.62 745.275 1823.92 683.745 1773 632.817C1737.7 597.522 1696.45 570.433 1643.49 547.784C1632.73 543.179 1605.29 533.302 1568.49 520.79C1514.68 502.488 1457.15 491.76 1385.49 486.657C1363.69 485.105 1292.72 485.102 1269.99 486.652C1180.62 492.751 1099.85 506.48 1016.99 529.657C889.759 565.249 804.935 583.073 729.995 589.963C712.35 591.586 666.867 591.6 650.995 589.988C624.509 587.297 603.275 582.976 583.995 576.352C569.319 571.31 548.771 560.924 540.701 554.469C526.411 543.038 512.85 521.027 507.342 500.32C503.751 486.824 503.546 467.524 506.863 455.32C514.047 428.894 535.105 403.179 557.771 393.155C571.768 386.965 592.663 384.856 605.914 388.296C613.897 390.369 622.872 394.8 629.786 400.083C635.596 404.523 645.416 416.912 648.385 423.545L650.276 427.771L657.885 427.211C662.07 426.903 666.011 426.496 666.643 426.306C668.69 425.691 670.28 412.019 669.721 399.846C668.063 363.725 645.455 331.638 608.354 312.749C570.757 293.607 523.222 291.801 481.805 307.942C424.642 330.219 380.566 375.548 361.148 432.028C352.648 456.752 348.995 479.089 348.995 506.32C348.995 537.591 354.111 564.01 365.941 593.82L368.125 599.32L361.966 593.32C328.114 560.333 304.019 500.951 297.902 435.434C296.258 417.828 297.3 379.025 299.949 359.119C310.928 276.623 345.988 208.945 399.124 167.673C427.85 145.361 456.883 132.012 490.428 125.694C504.373 123.067 536.184 122.031 550.615 123.733C583.139 127.568 612.148 138.269 636.611 155.453C650.062 164.902 670.941 185.626 680.016 198.536C697.861 223.919 708.965 250.947 714.645 282.82C716.31 292.163 717.064 318.649 716.054 332.267L715.612 338.214L723.054 340.965C727.146 342.478 730.762 343.739 731.089 343.768C732.161 343.862 741.764 322.539 745.45 311.878C752.683 290.963 756.933 259.205 755.563 236.32C751.681 171.443 722.155 111.066 673.401 68.3041C633.026 32.8901 579.86 9.73011 521.854 2.28711C506.991 0.380112 472.528 -0.390888 457.995 0.859112ZM1719.99 709.32C1721.86 711.245 1723.61 712.82 1723.89 712.82C1724.16 712.82 1722.86 711.245 1720.99 709.32C1719.13 707.395 1717.38 705.82 1717.1 705.82C1716.83 705.82 1718.13 707.395 1719.99 709.32ZM1729.49 718.82C1731.64 721.02 1733.63 722.82 1733.9 722.82C1734.18 722.82 1732.64 721.02 1730.49 718.82C1728.35 716.62 1726.36 714.82 1726.09 714.82C1725.81 714.82 1727.35 716.62 1729.49 718.82ZM176.995 747.198C176.995 747.405 177.782 748.193 178.745 748.948C180.331 750.191 180.366 750.156 179.123 748.57C177.816 746.904 176.995 746.375 176.995 747.198ZM118.995 880.198C118.995 880.405 119.782 881.193 120.745 881.948C122.331 883.191 122.366 883.156 121.123 881.57C119.816 879.904 118.995 879.375 118.995 880.198ZM142.495 903.82C143.49 904.92 144.53 905.82 144.805 905.82C145.08 905.82 144.49 904.92 143.495 903.82C142.5 902.72 141.46 901.82 141.185 901.82C140.91 901.82 141.5 902.72 142.495 903.82Z" fill="#309FDF"/>
<path fill-rule="evenodd" clip-rule="evenodd" d="M457.994 0.859112C427.995 3.44011 398.959 10.2551 370.917 21.2991C336.101 35.0101 310.485 49.5311 282.051 71.6761C194.623 139.765 139.339 248.526 130.019 370.77C128.697 388.117 128.706 420.971 130.038 437.425C133.128 475.599 140.884 512.655 152.936 546.82C191.973 657.484 268.899 734.404 375.994 769.86C422.939 785.402 472.978 792.786 531.512 792.81C620.791 792.847 719.348 775.032 830.455 738.773C856.968 730.121 884.836 720.171 953.494 694.843C1094.83 642.704 1165.86 620.086 1246.99 601.379C1324.39 583.534 1382.25 576.04 1449.99 575.087C1516.9 574.145 1568.75 579.391 1599.14 590.177C1679.73 618.774 1742.93 664.372 1792.26 729.51C1815.64 760.385 1840.74 805.058 1854.06 839.53L1854.91 841.74L1860.61 839.78C1863.74 838.702 1867.15 837.82 1868.18 837.82C1869.21 837.82 1870.29 837.201 1870.58 836.445C1870.87 835.689 1869.74 827.088 1868.05 817.331C1855.62 745.275 1823.92 683.745 1773 632.817C1737.7 597.522 1696.45 570.433 1643.49 547.784C1632.73 543.179 1605.29 533.302 1568.49 520.79C1514.68 502.488 1457.15 491.76 1385.49 486.657C1363.69 485.105 1292.72 485.102 1269.99 486.652C1180.62 492.751 1099.85 506.48 1016.99 529.657C889.758 565.249 804.934 583.073 729.994 589.963C712.349 591.586 666.866 591.6 650.994 589.988C624.508 587.297 603.274 582.976 583.994 576.352C569.318 571.31 548.77 560.924 540.7 554.469C526.41 543.038 512.85 521.027 507.342 500.32C503.751 486.824 503.546 467.524 506.863 455.32C514.047 428.894 535.104 403.179 557.77 393.155C571.767 386.965 592.663 384.856 605.914 388.296C613.897 390.369 622.871 394.8 629.785 400.083C635.595 404.523 645.416 416.912 648.385 423.545L650.276 427.771L657.885 427.211C662.07 426.903 666.01 426.496 666.642 426.306C668.689 425.691 670.28 412.019 669.721 399.846C668.063 363.725 645.455 331.638 608.354 312.749C570.757 293.607 523.221 291.801 481.804 307.942C424.641 330.219 380.566 375.548 361.148 432.028C352.648 456.752 348.994 479.089 348.994 506.32C348.994 537.591 354.111 564.01 365.941 593.82L368.124 599.32L361.966 593.32C328.114 560.333 304.019 500.951 297.902 435.434C296.258 417.828 297.299 379.025 299.948 359.119C310.927 276.623 345.987 208.945 399.123 167.673C427.849 145.361 456.883 132.012 490.428 125.694C504.373 123.067 536.183 122.031 550.614 123.733C583.138 127.568 612.148 138.269 636.611 155.453C650.062 164.902 670.94 185.626 680.015 198.536C697.86 223.919 708.964 250.947 714.644 282.82C716.309 292.163 717.063 318.649 716.053 332.267L715.611 338.214L723.053 340.965C727.145 342.478 730.761 343.739 731.088 343.768C732.16 343.862 741.763 322.539 745.449 311.878C752.682 290.963 756.933 259.205 755.563 236.32C751.681 171.443 722.155 111.066 673.401 68.3041C633.026 32.8901 579.859 9.73011 521.853 2.28711C506.99 0.380112 472.527 -0.390888 457.994 0.859112Z" fill="#4BC6F1"/>
<path fill-rule="evenodd" clip-rule="evenodd" d="M467.952 0.189104C467.7 0.436104 463.22 0.918104 457.995 1.2591C452.77 1.6011 447.145 2.0751 445.495 2.3141C443.845 2.5531 440.695 2.9781 438.495 3.2601C436.295 3.5411 433.37 4.0231 431.995 4.3311C430.62 4.6391 428.37 5.0691 426.995 5.2861C418.785 6.5831 416.326 7.1111 414.876 7.8851C413.986 8.3611 412.985 8.4761 412.651 8.1421C412.317 7.8081 411.429 8.0451 410.677 8.6691C409.926 9.2921 409.074 9.5671 408.785 9.2781C408.497 8.9891 406.289 9.4021 403.878 10.1951C401.467 10.9891 397.92 11.9571 395.995 12.3461C394.07 12.7361 392.045 13.3271 391.495 13.6591C390.945 13.9911 389.692 14.3871 388.712 14.5401C387.731 14.6931 385.931 15.4671 384.712 16.2611C383.492 17.0541 381.287 17.9201 379.811 18.1841C378.335 18.4481 375.41 19.4201 373.311 20.3441C371.212 21.2681 368.37 22.4811 366.995 23.0391C365.62 23.5971 363.714 24.4511 362.759 24.9371C361.804 25.4231 360.546 25.8201 359.966 25.8201C357.649 25.8201 330.199 39.2651 323.495 43.6841C321.295 45.1341 317.777 47.2201 315.678 48.3201C313.578 49.4201 311.009 51.1071 309.969 52.0701C308.929 53.0321 307.609 53.8201 307.036 53.8201C306.463 53.8201 305.995 54.2701 305.995 54.8201C305.995 55.3701 305.32 55.8201 304.495 55.8201C303.67 55.8201 302.995 56.2701 302.995 56.8201C302.995 57.3701 302.32 57.8201 301.495 57.8201C300.67 57.8201 299.995 58.2701 299.995 58.8201C299.995 59.3701 299.32 59.8201 298.495 59.8201C297.67 59.8201 296.995 60.2701 296.995 60.8201C296.995 61.3701 296.32 61.8201 295.495 61.8201C294.67 61.8201 293.995 62.2841 293.995 62.8511C293.995 63.4191 293.207 64.1681 292.245 64.5181C290.654 65.0951 284.086 69.8121 281.402 72.3061C280.802 72.8641 278.808 74.4451 276.97 75.8201C262.705 86.4931 231.977 116.927 225.225 127.07C223.853 129.133 222.339 130.82 221.862 130.82C221.385 130.82 220.995 131.345 220.995 131.986C220.995 132.627 220.341 133.865 219.541 134.736C214.79 139.913 213.993 140.892 213.978 141.57C213.968 141.982 212.843 143.38 211.478 144.675C210.112 145.97 208.995 147.41 208.995 147.873C208.995 148.337 207.87 149.931 206.495 151.415C205.12 152.898 203.995 154.721 203.995 155.466C203.995 156.211 203.545 156.82 202.995 156.82C202.445 156.82 201.995 157.495 201.995 158.32C201.995 159.145 201.545 159.82 200.995 159.82C200.445 159.82 199.995 160.495 199.995 161.32C199.995 162.145 199.596 162.82 199.109 162.82C198.622 162.82 197.435 164.48 196.473 166.508C195.51 168.536 193.884 171.096 192.859 172.196C191.834 173.297 190.995 174.732 190.995 175.386C190.995 176.04 190.325 177.131 189.506 177.811C188.687 178.491 188.264 179.446 188.565 179.933C188.866 180.421 188.72 180.82 188.24 180.82C187.761 180.82 185.371 184.757 182.931 189.57C180.491 194.383 178.177 198.56 177.788 198.852C176.601 199.746 163.309 229.116 161.51 234.82C161.423 235.095 160.863 236.445 160.265 237.82C158.164 242.65 156.791 246.738 157.141 247.123C157.336 247.337 156.995 248.144 156.383 248.916C155.771 249.688 154.908 251.67 154.464 253.32C153.27 257.762 153.265 257.779 152.995 258.32C152.858 258.595 152.632 259.27 152.495 259.82C152.358 260.37 152.132 261.045 151.995 261.32C151.858 261.595 151.682 262.157 151.605 262.57C151.528 262.983 151.196 263.77 150.868 264.32C150.38 265.137 148.963 269.746 148.561 271.82C148.508 272.095 148.107 272.883 147.671 273.57C147.234 274.258 147.105 275.19 147.385 275.642C147.664 276.094 147.233 277.736 146.426 279.29C145.619 280.845 145.188 282.347 145.468 282.627C145.749 282.907 145.57 283.627 145.072 284.228C144.573 284.829 143.866 287.33 143.5 289.786C143.134 292.243 142.417 295.031 141.908 295.983C141.398 296.935 140.904 298.975 140.81 300.517C140.715 302.059 140.394 303.77 140.095 304.32C139.546 305.33 139.41 305.896 138.419 311.32C138.118 312.97 137.649 315.445 137.379 316.82C137.108 318.195 136.756 320.22 136.597 321.32C136.437 322.42 136.009 324.445 135.645 325.82C135.282 327.195 134.718 330.57 134.393 333.32C134.068 336.07 133.621 339.445 133.399 340.82C133.177 342.195 132.781 345.483 132.519 348.127C132.257 350.77 131.842 353.259 131.595 353.658C130.529 355.384 129.495 380.316 129.495 404.32C129.495 426.997 129.985 438.644 131.431 450.32C131.635 451.97 132.081 456.02 132.422 459.32C132.762 462.62 133.299 466.593 133.615 468.148C133.93 469.704 134.372 472.179 134.595 473.648C134.819 475.118 135.201 477.445 135.444 478.82C135.687 480.195 136.077 482.67 136.31 484.32C136.543 485.97 137.207 489.008 137.784 491.07C138.361 493.132 138.59 494.82 138.292 494.82C137.994 494.82 138.271 495.448 138.908 496.215C139.544 496.982 139.976 497.994 139.866 498.465C139.757 498.935 139.969 500.445 140.337 501.82C140.706 503.195 141.196 505.445 141.427 506.82C141.658 508.195 141.911 509.32 141.99 509.32C142.068 509.32 142.294 510.551 142.493 512.056C142.692 513.561 143.308 516.261 143.861 518.056C144.98 521.69 147.324 530.044 147.442 530.82C147.484 531.095 148.033 532.67 148.663 534.32C150.909 540.208 151.325 541.33 151.534 542.07C151.65 542.483 151.858 543.045 151.995 543.32C152.132 543.595 152.358 544.27 152.495 544.82C152.632 545.37 152.858 546.045 152.995 546.32C153.132 546.595 153.308 547.157 153.385 547.57C153.462 547.983 153.883 548.883 154.319 549.57C154.756 550.258 154.846 550.82 154.519 550.82C154.192 550.82 154.487 551.833 155.174 553.07C155.862 554.308 156.496 555.657 156.585 556.07C156.673 556.483 156.858 557.045 156.995 557.32C157.132 557.595 157.358 558.27 157.495 558.82C157.632 559.37 157.855 560.157 157.988 560.57C158.122 560.983 158.179 561.657 158.113 562.07C158.048 562.483 158.369 562.82 158.827 562.82C159.286 562.82 159.664 563.383 159.666 564.07C159.668 564.758 160.622 567.467 161.786 570.091C162.949 572.715 163.855 574.965 163.799 575.091C163.744 575.217 164.752 577.345 166.039 579.82C167.326 582.295 168.488 584.95 168.621 585.72C168.753 586.49 169.454 587.495 170.179 587.955C170.903 588.414 171.118 588.796 170.656 588.805C169.855 588.819 181.554 611.783 182.891 612.82C183.246 613.095 184.086 614.445 184.758 615.82C186.361 619.099 188.1 621.76 190.21 624.167C191.154 625.243 191.69 626.505 191.401 626.971C191.113 627.438 191.354 627.82 191.936 627.82C192.518 627.82 192.995 628.495 192.995 629.32C192.995 630.145 193.445 630.82 193.995 630.82C194.545 630.82 194.995 631.495 194.995 632.32C194.995 633.145 195.445 633.82 195.995 633.82C196.545 633.82 196.995 634.495 196.995 635.32C196.995 636.145 197.333 636.826 197.745 636.833C198.157 636.84 200.045 639.315 201.94 642.333C203.835 645.351 205.748 647.82 206.19 647.82C206.633 647.82 206.995 648.3 206.995 648.887C206.995 650.187 215.67 661.003 217.608 662.12C218.371 662.56 218.995 663.412 218.995 664.013C218.995 665.528 222.856 669.668 242.819 689.559C252.347 699.052 260.62 706.82 261.204 706.82C261.788 706.82 263.305 707.833 264.574 709.07C269.497 713.868 270.703 714.82 271.859 714.82C272.518 714.82 273.317 715.495 273.633 716.32C273.95 717.145 274.85 717.82 275.633 717.82C276.417 717.82 277.317 718.495 277.633 719.32C277.95 720.145 278.723 720.829 279.352 720.839C279.981 720.85 282.234 722.376 284.359 724.231C286.485 726.087 289.41 728.215 290.859 728.961C292.309 729.707 293.72 730.547 293.995 730.828C295.2 732.059 302.995 736.795 302.995 736.295C302.995 735.991 303.916 736.601 305.044 737.651C306.171 738.702 308.983 740.394 311.294 741.413C313.604 742.431 315.72 743.559 315.995 743.918C316.555 744.651 338.697 755.849 339.501 755.806C339.784 755.792 341.249 756.416 342.755 757.193C347.379 759.579 357.995 763.713 357.995 763.127C357.995 762.824 358.599 763.076 359.337 763.689C360.075 764.301 360.975 764.507 361.337 764.145C361.699 763.783 361.995 764.087 361.995 764.82C361.995 765.553 362.29 765.857 362.652 765.495C363.014 765.133 363.914 765.339 364.652 765.951C365.39 766.564 365.995 766.773 365.995 766.417C365.995 766.06 367.345 766.467 368.995 767.32C370.645 768.173 371.995 768.58 371.995 768.223C371.995 767.867 372.738 768.193 373.648 768.948C374.557 769.702 375.457 770.208 375.648 770.07C375.838 769.932 376.108 769.854 376.245 769.897C376.382 769.939 377.17 770.137 377.995 770.338C378.82 770.539 382.801 771.855 386.841 773.262C390.881 774.669 395.241 775.82 396.531 775.82C397.821 775.82 399.131 776.231 399.441 776.733C399.752 777.235 401.916 777.985 404.25 778.4C406.585 778.815 409.283 779.305 410.245 779.487C411.207 779.67 413.007 780.008 414.245 780.237C415.483 780.466 416.495 780.728 416.495 780.82C416.495 780.996 418.729 781.453 423.188 782.187C424.668 782.432 426.296 782.888 426.805 783.202C427.313 783.516 429.926 784.031 432.612 784.346C438.867 785.08 441.885 785.544 444.995 786.253C447.2 786.756 449.569 787.072 459.995 788.258C461.37 788.414 463.845 788.812 465.495 789.143C467.145 789.473 471.87 790.019 475.995 790.356C480.12 790.692 485.295 791.193 487.495 791.469C497.253 792.691 553.44 792.963 568.495 791.862C577.295 791.218 585.17 790.685 585.995 790.676C587.758 790.658 605.927 788.959 610.995 788.338C612.92 788.102 616.52 787.638 618.995 787.307C621.47 786.975 625.07 786.555 626.995 786.373C628.92 786.192 632.295 785.734 634.495 785.356C636.695 784.977 639.62 784.542 640.995 784.388C649.366 783.452 655.592 782.539 656.237 782.154C656.646 781.91 658.896 781.504 661.237 781.253C663.578 781.001 666.62 780.506 667.995 780.152C669.37 779.798 671.395 779.367 672.495 779.194C673.595 779.021 675.732 778.641 677.245 778.349C678.758 778.058 681.232 777.582 682.745 777.291C684.258 777 686.17 776.734 686.995 776.701C687.82 776.667 689.946 776.199 691.721 775.66C693.495 775.121 696.195 774.503 697.721 774.286C699.246 774.068 701.62 773.618 702.995 773.284C704.37 772.951 706.395 772.542 707.495 772.377C708.595 772.211 709.495 771.98 709.495 771.864C709.495 771.748 710.62 771.466 711.995 771.237C716.908 770.417 718.495 770.072 718.495 769.82C718.495 769.68 719.545 769.457 720.828 769.325C722.112 769.193 724.812 768.628 726.828 768.07C731.375 766.812 750.604 761.955 753.995 761.208C755.37 760.905 757.17 760.392 757.995 760.068C758.82 759.743 760.798 759.33 762.391 759.149C763.985 758.968 765.85 758.355 766.536 757.786C767.221 757.217 769.067 756.582 770.638 756.374C772.21 756.167 774.732 755.518 776.245 754.933C777.758 754.348 778.995 754.06 778.995 754.294C778.995 754.527 780.57 754.06 782.495 753.256C784.42 752.451 785.995 751.998 785.995 752.247C785.995 752.497 787.199 752.076 788.672 751.312C790.145 750.548 791.74 750.163 792.216 750.457C792.692 750.751 793.738 750.448 794.539 749.784C795.34 749.119 795.995 748.867 795.995 749.223C795.995 749.58 797.287 749.203 798.867 748.386C800.447 747.568 801.96 747.119 802.229 747.388C802.497 747.656 804.018 747.382 805.606 746.778C807.195 746.174 808.495 745.787 808.495 745.919C808.495 746.05 809.537 745.6 810.81 744.919C812.083 744.238 814.108 743.46 815.31 743.192C819.053 742.355 820.486 741.98 820.745 741.772C820.883 741.661 821.445 741.458 821.995 741.32C822.545 741.182 823.22 740.958 823.495 740.82C823.77 740.682 824.445 740.458 824.995 740.32C825.545 740.182 826.22 739.958 826.495 739.82C826.77 739.682 827.332 739.496 827.745 739.405C828.158 739.315 834.345 737.31 841.495 734.951C857.752 729.587 856.952 729.832 857.352 730.097C857.536 730.22 858.432 729.702 859.341 728.948C860.251 728.193 860.995 727.907 860.995 728.313C860.995 728.718 862.12 728.313 863.495 727.412C864.87 726.511 865.995 726.021 865.995 726.323C865.995 726.624 867.345 726.173 868.995 725.32C870.645 724.467 871.995 724.06 871.995 724.417C871.995 724.773 872.67 724.505 873.495 723.82C874.32 723.135 874.995 722.871 874.995 723.233C874.995 723.594 876.008 723.334 877.245 722.654C878.482 721.974 880.36 721.274 881.417 721.099C882.473 720.924 883.936 720.284 884.667 719.678C885.397 719.071 885.995 718.91 885.995 719.32C885.995 719.73 886.598 719.564 887.336 718.951C888.074 718.339 888.974 718.133 889.336 718.495C889.698 718.857 889.995 718.553 889.995 717.82C889.995 717.087 890.277 716.769 890.622 717.113C890.967 717.458 892.542 717.072 894.122 716.254C895.702 715.437 896.995 715.06 896.995 715.417C896.995 715.773 897.598 715.564 898.336 714.951C899.074 714.339 899.974 714.133 900.336 714.495C900.698 714.857 900.995 714.553 900.995 713.82C900.995 713.087 901.277 712.769 901.622 713.113C901.967 713.458 903.542 713.072 905.122 712.254C906.702 711.437 907.995 711.06 907.995 711.417C907.995 711.773 908.631 711.537 909.408 710.892C910.186 710.247 912.098 709.492 913.658 709.216C915.218 708.939 918.857 707.636 921.745 706.321C924.632 705.006 926.995 704.186 926.995 704.498C926.995 704.81 927.598 704.564 928.336 703.951C929.074 703.339 929.974 703.133 930.336 703.495C930.698 703.857 930.995 703.724 930.995 703.199C930.995 702.675 931.907 702.177 933.023 702.093C934.139 702.009 937.514 700.813 940.523 699.435C943.532 698.058 945.995 697.186 945.995 697.498C945.995 697.81 946.631 697.537 947.408 696.892C948.186 696.247 950.084 695.49 951.627 695.21C953.17 694.93 955.009 694.223 955.714 693.638C956.419 693.054 956.995 692.864 956.995 693.218C956.995 693.571 958.795 692.942 960.995 691.82C963.195 690.698 964.995 690.039 964.995 690.356C964.995 690.674 965.995 690.233 967.218 689.377C968.44 688.521 970.375 687.82 971.518 687.82C972.66 687.82 974.134 687.28 974.794 686.62C975.454 685.96 975.995 685.744 975.995 686.14C975.995 686.537 977.795 685.942 979.995 684.82C982.195 683.698 983.995 683.039 983.995 683.356C983.995 683.674 984.995 683.233 986.218 682.377C987.44 681.521 989.352 680.816 990.468 680.81C991.583 680.805 994.857 679.701 997.745 678.356C1000.63 677.012 1002.99 676.171 1002.99 676.488C1002.99 676.805 1003.67 676.505 1004.49 675.82C1005.32 675.135 1005.99 674.867 1005.99 675.223C1005.99 675.58 1007.4 675.145 1009.12 674.258C1010.83 673.37 1013.42 672.432 1014.87 672.174C1016.31 671.915 1018.49 671.055 1019.71 670.262C1020.93 669.469 1022.75 668.82 1023.76 668.82C1024.77 668.82 1026.13 668.28 1026.79 667.62C1027.45 666.96 1027.99 666.79 1027.99 667.242C1027.99 667.695 1028.67 667.505 1029.49 666.82C1030.32 666.135 1030.99 665.907 1030.99 666.313C1030.99 666.718 1032.01 666.394 1033.24 665.593C1035.36 664.221 1039.04 662.973 1043.42 662.144C1044.47 661.944 1045.86 661.343 1046.51 660.809C1047.15 660.274 1047.97 660.133 1048.34 660.495C1048.7 660.857 1048.99 660.553 1048.99 659.82C1048.99 659.087 1049.29 658.783 1049.65 659.145C1050.01 659.507 1050.91 659.301 1051.65 658.689C1052.39 658.076 1052.99 657.839 1052.99 658.162C1052.99 658.485 1055.02 657.881 1057.49 656.82C1059.97 655.759 1061.99 655.155 1061.99 655.478C1061.99 655.801 1062.67 655.505 1063.49 654.82C1064.32 654.135 1064.99 653.91 1064.99 654.32C1064.99 654.73 1065.67 654.505 1066.49 653.82C1067.32 653.135 1067.99 652.91 1067.99 653.32C1067.99 653.73 1068.67 653.505 1069.49 652.82C1070.32 652.135 1070.99 651.91 1070.99 652.32C1070.99 652.73 1071.67 652.505 1072.49 651.82C1073.32 651.135 1073.99 650.91 1073.99 651.32C1073.99 651.73 1074.67 651.505 1075.49 650.82C1076.32 650.135 1076.99 649.91 1076.99 650.32C1076.99 650.73 1077.67 650.505 1078.49 649.82C1079.32 649.135 1079.99 648.91 1079.99 649.32C1079.99 649.73 1080.67 649.505 1081.49 648.82C1082.32 648.135 1082.99 647.91 1082.99 648.32C1082.99 648.73 1083.67 648.505 1084.49 647.82C1085.32 647.135 1085.99 646.91 1085.99 647.32C1085.99 647.73 1086.67 647.505 1087.49 646.82C1088.32 646.135 1088.99 645.91 1088.99 646.32C1088.99 646.73 1089.67 646.505 1090.49 645.82C1091.32 645.135 1091.99 644.91 1091.99 645.32C1091.99 645.73 1092.67 645.505 1093.49 644.82C1094.32 644.135 1094.99 643.91 1094.99 644.32C1094.99 644.73 1095.67 644.505 1096.49 643.82C1097.32 643.135 1097.99 642.91 1097.99 643.32C1097.99 643.73 1098.67 643.505 1099.49 642.82C1100.32 642.135 1100.99 641.91 1100.99 642.32C1100.99 642.73 1101.67 642.505 1102.49 641.82C1103.32 641.135 1103.99 640.91 1103.99 641.32C1103.99 641.73 1104.67 641.505 1105.49 640.82C1106.32 640.135 1106.99 639.91 1106.99 640.32C1106.99 640.73 1107.67 640.505 1108.49 639.82C1109.32 639.135 1109.99 638.91 1109.99 639.32C1109.99 639.73 1110.67 639.505 1111.49 638.82C1112.32 638.135 1112.99 637.839 1112.99 638.162C1112.99 638.485 1115.02 637.881 1117.49 636.82C1119.97 635.759 1121.99 635.155 1121.99 635.478C1121.99 635.801 1122.6 635.564 1123.34 634.951C1124.07 634.339 1124.96 634.123 1125.31 634.471C1125.66 634.82 1126.63 634.536 1127.47 633.84C1128.31 633.144 1128.99 632.91 1128.99 633.32C1128.99 633.73 1129.67 633.505 1130.49 632.82C1131.32 632.135 1131.99 631.871 1131.99 632.233C1131.99 632.594 1132.92 632.393 1134.06 631.785C1135.2 631.177 1137.11 630.46 1138.31 630.192C1139.51 629.923 1140.94 629.604 1141.49 629.483C1142.04 629.363 1143.06 628.912 1143.74 628.483C1144.43 628.053 1144.99 627.965 1144.99 628.287C1144.99 628.608 1146.29 628.203 1147.87 627.386C1149.45 626.568 1151.01 626.171 1151.34 626.502C1151.67 626.834 1152.63 626.536 1153.47 625.84C1154.31 625.144 1154.99 624.832 1154.99 625.147C1154.99 625.461 1156.46 625.107 1158.24 624.36C1160.03 623.613 1161.72 622.993 1161.99 622.981C1162.27 622.97 1163.75 622.484 1165.28 621.902C1166.81 621.32 1168.39 620.911 1168.78 620.993C1169.17 621.075 1170.79 620.608 1172.38 619.954C1173.97 619.299 1175.51 618.998 1175.79 619.283C1176.08 619.569 1176.8 619.399 1177.4 618.907C1178 618.414 1180.22 617.739 1182.32 617.408C1184.43 617.077 1187.02 616.343 1188.07 615.778C1189.13 615.212 1189.99 615.046 1189.99 615.407C1189.99 615.769 1190.56 615.641 1191.24 615.124C1191.93 614.606 1193.8 614.101 1195.39 614C1196.99 613.9 1198.79 613.425 1199.39 612.945C1200 612.465 1202.62 611.765 1205.22 611.388C1207.82 611.012 1210.23 610.25 1210.57 609.694C1210.92 609.138 1211.81 608.92 1212.56 609.208C1213.32 609.497 1214.22 609.272 1214.56 608.708C1214.91 608.145 1215.81 607.92 1216.56 608.208C1217.32 608.497 1218.22 608.272 1218.56 607.708C1218.91 607.145 1219.81 606.92 1220.56 607.208C1221.32 607.497 1222.22 607.272 1222.56 606.708C1222.91 606.145 1223.81 605.92 1224.56 606.208C1225.32 606.497 1226.22 606.272 1226.56 605.708C1226.91 605.145 1227.81 604.92 1228.56 605.208C1229.32 605.497 1230.2 605.295 1230.53 604.76C1230.86 604.225 1231.49 604.007 1231.92 604.275C1232.35 604.543 1234.24 604.286 1236.1 603.705C1239.48 602.653 1240.33 602.462 1246.99 601.255C1248.92 600.907 1251.22 600.232 1252.11 599.756C1253 599.28 1253.99 599.145 1254.3 599.455C1254.61 599.766 1255.45 599.659 1256.16 599.217C1256.87 598.776 1258.14 598.314 1258.98 598.19C1264.63 597.353 1267.15 596.84 1267.91 596.372C1268.39 596.077 1270.29 595.62 1272.14 595.357C1275.27 594.909 1276.48 594.681 1282.99 593.31C1284.37 593.021 1287.07 592.541 1288.99 592.244C1290.92 591.947 1293.39 591.42 1294.49 591.074C1295.59 590.728 1297.39 590.328 1298.49 590.186C1299.59 590.044 1301.84 589.674 1303.49 589.362C1305.14 589.051 1308.07 588.593 1309.99 588.345C1311.92 588.096 1314.62 587.597 1315.99 587.234C1317.37 586.872 1319.84 586.377 1321.49 586.135C1325.57 585.535 1328.92 585.022 1332.49 584.449C1334.14 584.184 1337.52 583.704 1339.99 583.38C1342.47 583.057 1346.07 582.573 1347.99 582.305C1349.92 582.037 1353.52 581.589 1355.99 581.31C1358.47 581.031 1361.84 580.613 1363.49 580.382C1365.14 580.15 1369.87 579.683 1373.99 579.343C1378.12 579.003 1382.79 578.474 1384.36 578.167C1385.94 577.86 1389.54 577.462 1392.36 577.282C1395.19 577.103 1401.32 576.692 1405.99 576.369C1410.67 576.046 1417.64 575.581 1421.49 575.336C1429.91 574.799 1494.01 574.789 1502.49 575.323C1516.76 576.22 1537.48 577.832 1541.49 578.357C1543.14 578.572 1546.29 578.945 1548.49 579.184C1550.69 579.424 1553.84 579.866 1555.49 580.168C1557.14 580.469 1562.77 581.437 1567.99 582.318C1573.22 583.199 1578.39 584.074 1579.49 584.261C1580.59 584.449 1583.52 585.154 1585.99 585.827C1588.47 586.5 1591.17 587.19 1591.99 587.359C1592.82 587.528 1593.61 587.758 1593.74 587.868C1593.88 587.979 1594.44 588.182 1594.99 588.32C1595.54 588.458 1596.22 588.682 1596.49 588.82C1596.77 588.958 1597.33 589.142 1597.74 589.23C1598.16 589.319 1599.51 589.953 1600.74 590.641C1601.98 591.328 1602.99 591.594 1602.99 591.233C1602.99 590.871 1603.67 591.135 1604.49 591.82C1605.32 592.505 1605.99 592.776 1605.99 592.422C1605.99 592.069 1607.79 592.698 1609.99 593.82C1612.19 594.942 1613.99 595.616 1613.99 595.317C1613.99 595.018 1615.01 595.437 1616.24 596.248C1617.48 597.059 1618.94 597.814 1619.49 597.927C1620.04 598.039 1622.07 598.801 1623.99 599.62C1625.92 600.439 1628.06 601.119 1628.74 601.131C1629.43 601.143 1629.99 601.603 1629.99 602.153C1629.99 602.703 1630.29 602.859 1630.65 602.5C1631.01 602.141 1632.81 602.777 1634.65 603.915C1636.49 605.052 1638 605.609 1638.01 605.152C1638.02 604.694 1638.36 604.806 1638.76 605.401C1639.16 605.995 1642.87 608.002 1646.99 609.859C1651.12 611.717 1656.07 614.2 1657.99 615.378C1659.92 616.555 1664.64 619.183 1668.49 621.218C1676.51 625.454 1675.94 625.112 1689.66 634.07C1695.34 637.783 1700.44 640.82 1700.99 640.82C1701.54 640.82 1701.99 641.27 1701.99 641.82C1701.99 642.37 1702.62 642.82 1703.39 642.82C1704.15 642.82 1705.04 643.495 1705.36 644.32C1705.67 645.145 1706.62 645.82 1707.46 645.82C1708.31 645.82 1709 646.157 1709 646.57C1709.01 646.983 1710.69 648.427 1712.75 649.781C1714.81 651.134 1717.24 652.934 1718.15 653.781C1719.06 654.627 1720.99 656.22 1722.44 657.32C1723.89 658.42 1727.35 661.345 1730.13 663.82C1732.91 666.295 1735.9 668.724 1736.77 669.218C1738.6 670.262 1771.2 703.219 1775.18 708.055C1776.66 709.851 1779.53 713.345 1781.55 715.82C1783.58 718.295 1785.52 720.545 1785.86 720.82C1786.21 721.095 1787.59 722.895 1788.92 724.82C1790.25 726.745 1791.94 728.68 1792.67 729.12C1793.4 729.56 1793.99 730.524 1793.99 731.263C1793.99 732.002 1794.67 732.865 1795.49 733.182C1796.32 733.498 1796.99 734.398 1796.99 735.182C1796.99 735.965 1797.67 736.865 1798.49 737.182C1799.32 737.498 1799.99 738.446 1799.99 739.289C1799.99 740.131 1800.44 740.82 1800.99 740.82C1801.54 740.82 1801.99 741.41 1801.99 742.131C1801.99 742.853 1802.89 744.409 1803.99 745.59C1805.09 746.77 1805.99 748.205 1805.99 748.778C1805.99 749.351 1806.44 749.82 1806.99 749.82C1807.54 749.82 1807.99 750.495 1807.99 751.32C1807.99 752.145 1808.44 752.82 1808.99 752.82C1809.54 752.82 1809.99 753.495 1809.99 754.32C1809.99 755.145 1810.44 755.82 1810.99 755.82C1811.54 755.82 1812 756.383 1812 757.07C1812 757.758 1813.12 759.627 1814.5 761.226C1815.87 762.824 1816.99 764.736 1816.99 765.476C1816.99 766.215 1817.35 766.82 1817.78 766.82C1818.2 766.82 1819.11 768.057 1819.8 769.57C1821.81 774.038 1824.24 778.21 1825.66 779.632C1826.39 780.362 1827.27 782.053 1827.6 783.39C1827.94 784.726 1828.61 785.82 1829.1 785.82C1829.59 785.82 1829.9 786.158 1829.79 786.57C1829.68 786.983 1833.8 795.87 1838.94 806.32C1844.08 816.77 1848.91 826.776 1849.67 828.555C1850.43 830.335 1851.68 833.26 1852.46 835.055C1853.23 836.851 1854.1 839.091 1854.39 840.034C1854.83 841.507 1855.37 841.592 1858.2 840.639C1860.01 840.029 1861.99 839.149 1862.59 838.684C1863.19 838.219 1865.21 837.67 1867.09 837.465C1870.94 837.044 1871.34 835.739 1869.83 828.56C1869.34 826.228 1868.71 822.97 1868.44 821.32C1868.17 819.67 1867.72 816.97 1867.44 815.32C1867.16 813.67 1866.9 811.645 1866.86 810.82C1866.82 809.995 1866.34 807.52 1865.79 805.32C1865.23 803.12 1864.6 799.822 1864.37 797.992C1864.14 796.162 1863.29 793.069 1862.48 791.12C1861.66 789.171 1860.99 786.532 1860.99 785.257C1860.99 783.982 1860.54 782.655 1859.98 782.31C1859.42 781.964 1859.23 781.243 1859.56 780.707C1859.9 780.171 1859.62 779.077 1858.96 778.276C1858.29 777.475 1858.05 776.82 1858.41 776.82C1858.77 776.82 1858.57 775.891 1857.96 774.755C1857.35 773.619 1856.63 771.707 1856.37 770.505C1855.53 766.762 1855.15 765.329 1854.95 765.07C1854.84 764.932 1854.63 764.37 1854.49 763.82C1854.36 763.27 1854.15 762.708 1854.04 762.57C1853.93 762.432 1853.68 761.474 1853.49 760.439C1853.29 759.405 1852.65 758.077 1852.06 757.489C1851.48 756.901 1850.99 755.412 1850.99 754.179C1850.99 752.946 1850.54 751.655 1849.98 751.31C1849.42 750.964 1849.22 750.263 1849.54 749.751C1849.85 749.239 1849.64 748.82 1849.05 748.82C1848.47 748.82 1847.99 747.695 1847.99 746.32C1847.99 744.945 1847.58 743.82 1847.07 743.82C1846.57 743.82 1845.86 742.465 1845.49 740.81C1845.13 739.154 1844.25 736.567 1843.55 735.06C1842.84 733.553 1840.56 728.608 1838.47 724.07C1836.39 719.533 1834.3 715.82 1833.84 715.82C1833.37 715.82 1833.11 715.451 1833.24 714.999C1833.61 713.79 1825.81 699.82 1824.77 699.82C1824.28 699.82 1824.11 699.438 1824.4 698.971C1824.69 698.505 1824.04 697.174 1822.96 696.013C1821.88 694.853 1820.99 693.541 1820.99 693.098C1820.99 692.089 1814.22 681.982 1811.81 679.394C1810.82 678.334 1809.76 676.647 1809.44 675.644C1809.12 674.641 1808.43 673.82 1807.9 673.82C1807.37 673.82 1806.65 673.032 1806.3 672.07C1805.65 670.273 1800.49 663.107 1798.57 661.32C1797.98 660.77 1796.29 658.707 1794.82 656.736C1786.76 645.938 1760.36 619.505 1749.13 610.994C1747.19 609.523 1744.24 607.083 1742.58 605.57C1740.91 604.058 1738.97 602.82 1738.27 602.82C1737.57 602.82 1736.99 602.466 1736.99 602.033C1736.99 601.143 1727.46 593.829 1726.27 593.803C1725.84 593.793 1724.43 592.668 1723.14 591.303C1721.84 589.937 1720.16 588.82 1719.39 588.82C1718.62 588.82 1717.99 588.37 1717.99 587.82C1717.99 587.27 1717.32 586.82 1716.49 586.82C1715.67 586.82 1714.99 586.37 1714.99 585.82C1714.99 585.27 1714.32 584.82 1713.49 584.82C1712.67 584.82 1711.99 584.421 1711.99 583.934C1711.99 583.447 1710.32 582.252 1708.27 581.28C1706.22 580.308 1703.94 578.907 1703.2 578.166C1702.46 577.426 1701.21 576.82 1700.42 576.82C1699.64 576.82 1698.99 576.483 1698.99 576.07C1698.98 575.657 1697.97 574.822 1696.74 574.214C1695.5 573.605 1690.67 570.95 1685.99 568.313C1681.32 565.676 1676.93 563.511 1676.24 563.502C1675.56 563.494 1674.99 563.142 1674.99 562.721C1674.99 561.898 1670.98 560.294 1669.74 560.622C1669.33 560.731 1668.99 560.435 1668.99 559.965C1668.99 559.148 1641.45 546.608 1636.74 545.281C1636.33 545.165 1635.66 544.96 1635.24 544.827C1634.83 544.693 1634.16 544.636 1633.74 544.702C1633.33 544.767 1632.99 544.37 1632.99 543.82C1632.99 543.27 1632.3 542.82 1631.44 542.82C1630.59 542.82 1628.63 542.165 1627.08 541.364C1625.53 540.563 1623.18 539.711 1621.85 539.471C1620.53 539.23 1617.77 538.333 1615.72 537.478C1613.67 536.622 1611.99 536.101 1611.99 536.32C1611.99 536.539 1610.48 536.084 1608.62 535.309C1606.77 534.533 1604.97 534.181 1604.62 534.526C1604.28 534.871 1603.99 534.7 1603.99 534.145C1603.99 533.212 1598.1 530.945 1593.54 530.122C1592.46 529.928 1591.23 529.218 1590.8 528.545C1590.38 527.871 1590.02 527.713 1590.01 528.192C1590 528.672 1589.42 528.586 1588.71 528.002C1588.01 527.417 1586.22 526.718 1584.73 526.448C1583.24 526.179 1581.46 525.597 1580.76 525.155C1580.06 524.712 1579.16 524.287 1578.74 524.21C1578.33 524.133 1577.77 523.958 1577.49 523.82C1577.22 523.682 1576.66 523.496 1576.24 523.405C1575.19 523.172 1561.81 518.786 1559.99 518.078C1559.17 517.756 1558.16 517.398 1557.74 517.281C1557.33 517.165 1556.88 516.979 1556.74 516.868C1556.61 516.758 1555.59 516.46 1554.49 516.207C1551.23 515.455 1549.51 514.986 1549.24 514.772C1549.11 514.661 1548.54 514.458 1547.99 514.32C1547.44 514.182 1546.88 513.983 1546.74 513.876C1546.61 513.769 1545.22 513.515 1543.67 513.311C1542.12 513.107 1540.27 512.464 1539.57 511.881C1538.87 511.299 1536.99 510.74 1535.39 510.64C1533.8 510.539 1532.04 510.15 1531.49 509.775C1530.94 509.4 1528.58 508.801 1526.24 508.445C1523.91 508.088 1520.08 507.15 1517.74 506.36C1515.41 505.57 1511.92 504.659 1509.99 504.336C1508.07 504.013 1505.74 503.52 1504.82 503.242C1502.86 502.646 1499.66 501.954 1495.49 501.223C1491.85 500.582 1488.99 500.008 1486.99 499.513C1485.21 499.071 1479.5 497.983 1475.99 497.417C1474.62 497.195 1472.37 496.757 1470.99 496.442C1469.62 496.128 1466.47 495.655 1463.99 495.391C1461.52 495.126 1458.55 494.704 1457.4 494.452C1454.96 493.918 1445.84 492.655 1441.49 492.247C1439.84 492.093 1436.92 491.735 1434.99 491.452C1429.79 490.686 1422.14 489.798 1416.49 489.304C1404.26 488.233 1388.37 486.967 1386.99 486.954C1386.17 486.946 1379.19 486.594 1371.49 486.172C1346.72 484.814 1263.81 485.635 1261.06 487.267C1260.75 487.45 1255.32 487.897 1248.99 488.26C1242.67 488.623 1236.81 489.119 1235.98 489.362C1235.15 489.605 1231.77 490.022 1228.48 490.288C1215.75 491.317 1211.37 491.735 1207.99 492.245C1202.84 493.024 1195.97 493.891 1191.99 494.267C1190.07 494.448 1186.69 494.906 1184.49 495.284C1180.44 495.982 1179.39 496.125 1170.49 497.209C1167.74 497.543 1164.37 498.046 1162.99 498.326C1161.62 498.607 1158.24 499.102 1155.49 499.427C1152.74 499.753 1147.12 500.687 1142.99 501.503C1135.55 502.976 1132.8 503.497 1127.99 504.345C1126.62 504.587 1124.26 505.019 1122.74 505.303C1117.64 506.263 1114.51 506.807 1111.49 507.257C1107.81 507.808 1104.45 508.539 1101.89 509.354C1100.81 509.695 1098.71 510.148 1097.22 510.361C1095.72 510.575 1093.37 511.022 1091.99 511.356C1090.62 511.689 1088.59 512.098 1087.49 512.263C1086.39 512.429 1085.49 512.66 1085.49 512.776C1085.49 512.892 1084.37 513.174 1082.99 513.403C1078.08 514.223 1076.49 514.568 1076.49 514.82C1076.49 514.96 1075.59 515.205 1074.49 515.364C1072.73 515.619 1064.2 517.427 1061.49 518.12C1060.94 518.261 1059.93 518.728 1059.24 519.157C1058.56 519.587 1057.58 519.679 1057.06 519.363C1056.55 519.046 1055.83 519.275 1055.46 519.872C1055.09 520.468 1054.18 520.72 1053.43 520.432C1052.67 520.143 1051.77 520.368 1051.43 520.932C1051.08 521.495 1050.18 521.72 1049.43 521.432C1048.67 521.143 1047.77 521.368 1047.43 521.932C1047.08 522.495 1046.21 522.732 1045.49 522.457C1044.78 522.182 1043.92 522.225 1043.6 522.552C1043.27 522.878 1041.58 523.301 1039.84 523.492C1038.1 523.682 1036.19 524.227 1035.59 524.703C1034.99 525.178 1032.37 525.875 1029.77 526.252C1027.17 526.628 1024.77 527.367 1024.45 527.894C1024.12 528.421 1023.47 528.613 1022.99 528.32C1022.52 528.027 1021.85 528.252 1021.49 528.82C1021.14 529.388 1020.42 529.582 1019.88 529.25C1019.35 528.919 1018.25 529.192 1017.45 529.856C1016.65 530.521 1015.99 530.73 1015.99 530.32C1015.99 529.91 1015.39 530.076 1014.65 530.689C1013.91 531.301 1013.03 531.517 1012.68 531.169C1012.33 530.82 1011.4 531.069 1010.61 531.722C1009.83 532.374 1007.23 533.141 1004.84 533.426C1002.45 533.711 1000.07 534.366 999.544 534.882C999.021 535.398 997.362 535.82 995.854 535.82C994.346 535.82 992.877 536.201 992.589 536.667C992.301 537.133 990.669 537.553 988.961 537.602C987.254 537.65 985.302 538.15 984.625 538.711C983.948 539.273 981.393 540.038 978.945 540.413C976.498 540.787 973.952 541.52 973.289 542.043C972.625 542.565 971.643 542.721 971.107 542.39C970.571 542.058 969.846 542.252 969.495 542.82C969.144 543.388 968.447 543.599 967.947 543.29C967.446 542.981 966.162 543.195 965.094 543.767C964.026 544.338 961.429 545.077 959.323 545.408C957.217 545.739 954.952 546.456 954.289 547.001C953.625 547.546 952.716 547.766 952.268 547.49C951.821 547.213 949.072 547.826 946.159 548.852C943.246 549.878 939.273 550.97 937.331 551.279C931.392 552.223 924.56 554.058 923.289 555.05C922.625 555.568 921.643 555.721 921.107 555.39C920.571 555.058 919.832 555.275 919.463 555.872C919.094 556.468 918.207 556.732 917.492 556.457C916.776 556.182 915.922 556.225 915.596 556.552C915.269 556.878 913.758 557.282 912.237 557.448C910.716 557.615 906.605 558.667 903.102 559.785C899.599 560.904 895.47 561.82 893.924 561.82C892.378 561.82 890.877 562.201 890.589 562.667C890.301 563.133 888.728 563.552 887.093 563.598C885.458 563.645 883.25 564.148 882.188 564.716C881.126 565.285 879.985 565.476 879.651 565.142C879.317 564.808 878.405 565.065 877.624 565.713C876.844 566.36 875.82 566.789 875.349 566.665C874.879 566.541 873.145 566.757 871.495 567.146C865.49 568.562 863.456 569.006 861.495 569.326C860.395 569.506 859.495 569.722 859.495 569.806C859.495 569.889 858.145 570.132 856.495 570.345C854.845 570.558 852.37 571.043 850.995 571.421C849.62 571.799 847.82 572.214 846.995 572.342C846.17 572.47 844.145 572.853 842.495 573.193C840.845 573.533 838.37 574.034 836.995 574.307C835.62 574.58 833.37 575.054 831.995 575.36C830.62 575.666 828.37 576.104 826.995 576.333C825.62 576.562 823.37 577.021 821.995 577.353C819.186 578.031 816.344 578.525 810.495 579.351C808.295 579.662 801.32 580.796 794.995 581.871C788.67 582.946 781.92 584.023 779.995 584.264C778.07 584.505 774.92 585.003 772.995 585.37C771.07 585.738 768.145 586.18 766.495 586.352C764.845 586.525 761.02 586.92 757.995 587.229C754.97 587.539 750.92 588.004 748.995 588.264C747.07 588.524 741.895 589.006 737.495 589.336C733.095 589.666 727.92 590.134 725.995 590.377C719.333 591.216 663.076 591.577 658.794 590.808C656.429 590.383 650.67 589.738 645.995 589.375C635.649 588.571 632.527 588.22 627.995 587.354C626.07 586.986 622.92 586.468 620.995 586.202C616.459 585.576 613.495 585.029 613.495 584.82C613.495 584.646 611.233 584.159 606.995 583.422C605.62 583.182 604.27 582.896 603.995 582.785C603.72 582.674 603.11 582.652 602.64 582.737C602.169 582.821 601.157 582.369 600.39 581.733C599.623 581.096 598.995 580.832 598.995 581.147C598.995 581.461 597.42 581.06 595.495 580.256C593.57 579.451 591.995 579.079 591.995 579.429C591.995 579.779 591.397 579.569 590.667 578.962C589.936 578.356 588.473 577.725 587.417 577.561C586.36 577.397 584.933 576.911 584.245 576.482C583.558 576.053 582.995 575.927 582.995 576.202C582.995 576.477 581.79 576.076 580.317 575.312C578.844 574.548 577.269 574.151 576.817 574.43C576.365 574.71 575.995 574.461 575.995 573.879C575.995 573.297 575.314 572.82 574.481 572.82C573.649 572.82 572.186 572.388 571.231 571.86C570.276 571.331 565.445 568.993 560.495 566.664C555.545 564.334 550.9 561.841 550.174 561.124C549.447 560.407 548.305 559.82 547.638 559.82C545.336 559.82 535.543 550.902 528.969 542.82C521.313 533.407 519.655 530.797 514.995 520.816C513.07 516.693 511.045 512.989 510.495 512.585C509.945 512.181 509.81 511.844 510.194 511.835C510.578 511.827 510.176 510.133 509.301 508.07C508.425 506.008 507.57 503.42 507.4 502.32C507.029 499.916 506.241 496.221 505.375 492.82C503.944 487.2 504.586 459.98 506.214 457.238C506.514 456.733 507.124 454.745 507.57 452.82C508.712 447.893 508.717 447.875 508.995 447.32C509.132 447.045 509.334 446.483 509.443 446.07C510.081 443.657 519.308 425.82 519.919 425.82C520.324 425.82 522.098 423.812 523.861 421.358C529.803 413.083 547.833 395.993 549.19 397.349C549.475 397.635 550.278 397.182 550.974 396.344C551.67 395.506 552.681 394.82 553.221 394.82C553.761 394.82 556.406 393.714 559.099 392.361C561.791 391.009 563.995 390.164 563.995 390.484C563.995 390.803 564.68 390.496 565.518 389.8C566.356 389.104 567.291 388.783 567.594 389.086C567.898 389.389 569.574 389.221 571.32 388.712C573.066 388.204 575.845 387.542 577.495 387.242C581.715 386.475 599.989 386.532 602.995 387.321C604.37 387.682 606.395 388.122 607.495 388.299C609.981 388.698 623.615 395.171 626.995 397.556C630.16 399.789 640.014 409.771 641.995 412.751C642.82 413.991 644.283 415.933 645.245 417.066C646.207 418.199 646.995 419.7 646.995 420.402C646.995 421.103 647.686 422.368 648.531 423.213C649.375 424.058 650.05 424.99 650.031 425.284C649.862 427.817 650.265 427.969 655.245 427.256C658.133 426.842 661.923 426.587 663.669 426.688C665.415 426.79 667.09 426.475 667.39 425.99C668.586 424.055 669.34 415.724 669.354 404.32C669.369 392.472 669.051 389.442 667.12 383.07C666.578 381.282 666.312 379.82 666.529 379.82C666.746 379.82 666.056 377.795 664.995 375.32C663.934 372.845 663.25 370.82 663.474 370.82C664.289 370.82 659.693 361.24 657.417 358.193C656.132 356.474 655.362 354.786 655.705 354.443C656.048 354.101 655.802 353.82 655.161 353.82C654.519 353.82 653.995 353.351 653.995 352.778C653.995 351.622 652.627 349.774 649.245 346.361C648.008 345.112 646.995 343.648 646.995 343.106C646.995 341.499 629.604 325.651 626.557 324.482C625.698 324.152 624.995 323.419 624.995 322.851C624.995 322.284 624.32 321.82 623.495 321.82C622.67 321.82 621.995 321.37 621.995 320.82C621.995 320.27 621.32 319.82 620.495 319.82C619.67 319.82 618.995 319.343 618.995 318.761C618.995 318.179 618.545 317.98 617.995 318.32C617.445 318.66 616.995 318.534 616.995 318.04C616.995 317.075 611.989 314.356 610.745 314.645C610.332 314.741 609.995 314.4 609.995 313.887C609.995 313.013 605.953 311.252 605.107 311.759C604.893 311.886 604.443 311.606 604.107 311.135C603.294 309.998 598.112 307.729 595.026 307.158C593.668 306.907 591.981 306.223 591.276 305.638C590.571 305.054 589.995 304.91 589.995 305.32C589.995 305.73 589.32 305.505 588.495 304.82C587.67 304.135 586.995 303.867 586.995 304.223C586.995 304.58 585.702 304.203 584.122 303.386C582.542 302.568 580.977 302.171 580.646 302.502C580.315 302.834 579.429 302.595 578.677 301.971C577.926 301.348 577.026 301.123 576.677 301.471C576.329 301.82 575.469 301.652 574.768 301.099C574.067 300.545 572.82 300.046 571.995 299.99C571.17 299.933 569.145 299.662 567.495 299.387C558.503 297.89 555.385 297.613 543.495 297.259C529.173 296.832 515.574 298.316 501.495 301.841C498.745 302.53 495.82 303.328 494.995 303.615C494.17 303.902 493.105 304.049 492.629 303.94C492.152 303.831 490.706 304.435 489.414 305.281C488.122 306.128 486.186 306.82 485.113 306.82C484.039 306.82 483.012 307.244 482.828 307.761C482.645 308.279 481.157 308.942 479.521 309.236C475.493 309.958 454.995 319.928 454.995 321.165C454.995 321.709 454.726 321.884 454.398 321.556C453.76 320.918 443.721 326.703 443.161 328.031C442.977 328.465 442.19 328.82 441.411 328.82C440.631 328.82 439.995 329.187 439.995 329.636C439.995 330.085 438.308 331.41 436.245 332.581C434.183 333.752 431.077 335.972 429.344 337.515C427.612 339.058 424.687 341.431 422.844 342.788C421.002 344.146 415.05 349.771 409.618 355.288C395.648 369.479 394.995 370.204 394.995 371.531C394.995 372.185 394.399 373.08 393.671 373.52C392.943 373.96 391.255 375.895 389.921 377.82C388.587 379.745 387.239 381.545 386.928 381.82C386.429 382.261 382.956 387.465 379.24 393.336C378.549 394.427 376.974 397.345 375.74 399.82C374.505 402.295 373.185 404.555 372.806 404.842C371.556 405.787 366.143 418.635 366.742 419.234C367.065 419.556 366.802 419.82 366.161 419.82C365.519 419.82 364.995 420.945 364.995 422.32C364.995 423.695 364.597 424.82 364.113 424.82C363.628 424.82 362.654 426.957 361.947 429.57C361.241 432.183 360.588 434.545 360.497 434.82C360.406 435.095 359.969 436.67 359.525 438.32C359.082 439.97 358.455 441.77 358.135 442.32C357.814 442.87 357.427 444.22 357.273 445.32C357.12 446.42 356.29 449.519 355.43 452.206C354.57 454.893 353.689 458.268 353.473 459.706C353.256 461.144 352.803 463.67 352.466 465.32C352.129 466.97 351.645 469.895 351.389 471.82C351.134 473.745 350.623 477.57 350.255 480.32C348.651 492.324 349.723 539.939 351.669 543.101C351.934 543.53 352.324 545.33 352.536 547.101C352.897 550.111 353.589 553.674 354.036 554.82C354.143 555.095 354.172 555.676 354.1 556.111C354.027 556.545 354.379 557.67 354.882 558.611C355.385 559.551 356.084 561.895 356.435 563.82C357.155 567.774 357.392 568.63 358.421 570.992C358.821 571.911 359.305 573.486 359.496 574.492C359.686 575.497 359.933 576.432 360.043 576.57C360.154 576.708 360.358 577.27 360.495 577.82C360.632 578.37 360.858 579.045 360.995 579.32C361.132 579.595 361.34 580.157 361.456 580.57C361.573 580.983 362.001 582.072 362.408 582.992C362.816 583.911 363.271 585.261 363.421 585.992C363.691 587.31 364.437 589.48 365.941 593.32C366.372 594.42 366.746 595.72 366.773 596.208C366.801 596.697 367.425 597.477 368.16 597.943C368.894 598.408 369.045 598.794 368.495 598.799C367.647 598.807 362.822 594.217 351.245 582.389C350.007 581.125 348.988 579.692 348.98 579.205C348.972 578.718 347.172 576.331 344.98 573.9C342.788 571.469 340.995 568.919 340.995 568.234C340.995 567.548 340.565 566.837 340.038 566.653C338.978 566.284 336.767 562.366 328.845 546.82C325.903 541.045 323.045 535.989 322.495 535.585C321.945 535.181 321.808 534.844 322.19 534.835C322.572 534.827 321.858 532.457 320.604 529.57C317.052 521.395 316.666 520.372 316.836 519.57C316.924 519.157 316.518 518.82 315.936 518.82C315.354 518.82 315.105 518.45 315.385 517.998C315.664 517.546 315.267 515.971 314.503 514.498C313.739 513.025 313.367 511.82 313.677 511.82C313.986 511.82 313.68 511.145 312.995 510.32C312.31 509.495 312.085 508.82 312.495 508.82C312.905 508.82 312.68 508.145 311.995 507.32C311.31 506.495 311.007 505.82 311.322 505.82C311.636 505.82 311.235 504.245 310.431 502.32C309.626 500.395 309.254 498.82 309.604 498.82C309.954 498.82 309.671 498.134 308.975 497.296C308.279 496.458 307.97 495.511 308.289 495.193C308.607 494.875 308.405 493.423 307.839 491.967C307.274 490.511 306.614 488.195 306.374 486.82C306.134 485.445 305.642 483.645 305.281 482.82C304.681 481.449 302.706 471.688 301.538 464.32C301.277 462.67 300.789 460.195 300.454 458.82C300.12 457.445 299.619 453.17 299.34 449.32C299.061 445.47 298.434 440.295 297.948 437.82C296.582 430.866 297.6 376.106 299.333 363.32C300.153 357.27 300.786 352.095 300.741 351.82C300.696 351.545 300.971 349.745 301.354 347.82C301.736 345.895 302.226 342.97 302.445 341.32C302.663 339.67 303.117 337.195 303.454 335.82C304.433 331.819 305.149 327.458 305.135 325.59C305.127 324.638 305.544 323.599 306.059 323.281C306.574 322.962 306.995 321.433 306.995 319.883C306.995 318.333 307.651 315.491 308.454 313.569C309.258 311.647 309.662 309.822 309.354 309.514C309.046 309.205 309.17 308.361 309.63 307.637C310.089 306.912 310.527 305.983 310.604 305.57C310.681 305.157 310.852 304.483 310.984 304.07C311.117 303.657 311.31 302.87 311.414 302.32C311.841 300.048 313.311 295.252 313.867 294.32C314.195 293.77 314.527 292.983 314.604 292.57C314.681 292.157 314.858 291.595 314.995 291.32C315.265 290.779 315.27 290.762 316.464 286.32C316.908 284.67 317.68 282.797 318.182 282.157C318.684 281.517 319.325 279.717 319.604 278.157C319.884 276.597 320.535 275.17 321.053 274.987C321.57 274.803 321.995 273.866 321.995 272.903C321.995 271.941 322.332 270.816 322.745 270.403C323.158 269.991 323.534 269.353 323.583 268.987C323.933 266.368 338.652 237.144 341.115 234.175C341.734 233.43 341.942 232.82 341.578 232.82C341.215 232.82 341.835 231.835 342.956 230.631C344.077 229.428 344.995 227.853 344.995 227.131C344.995 226.41 345.445 225.82 345.995 225.82C346.545 225.82 346.995 225.145 346.995 224.32C346.995 223.495 347.445 222.82 347.995 222.82C348.545 222.82 348.995 222.145 348.995 221.32C348.995 220.495 349.445 219.82 349.995 219.82C350.545 219.82 350.995 219.183 350.995 218.403C350.995 217.624 351.335 216.837 351.751 216.653C352.166 216.47 354.431 213.845 356.783 210.82C359.135 207.795 362.057 204.037 363.277 202.47C366.1 198.841 382.877 180.96 385.404 178.886C386.454 178.025 388.612 176.126 390.201 174.666C391.79 173.207 394.639 170.957 396.535 169.666C398.43 168.376 399.984 167.048 399.988 166.715C399.992 166.382 402.02 164.83 404.495 163.266C406.97 161.701 408.995 160.061 408.995 159.621C408.995 159.18 409.67 158.82 410.495 158.82C411.32 158.82 411.995 158.37 411.995 157.82C411.995 157.27 412.515 156.82 413.151 156.82C413.786 156.82 415.78 155.695 417.583 154.32C419.386 152.945 421.342 151.82 421.928 151.82C422.515 151.82 422.995 151.37 422.995 150.82C422.995 150.27 423.332 149.899 423.745 149.995C424.947 150.274 429.995 147.581 429.995 146.659C429.995 146.198 430.332 145.89 430.745 145.976C431.158 146.061 435.32 144.292 439.995 142.045C444.67 139.797 448.72 138.003 448.995 138.058C449.27 138.113 450.62 137.535 451.995 136.774C453.37 136.013 454.72 135.359 454.995 135.32C455.27 135.281 456.507 134.687 457.745 133.999C458.983 133.312 459.995 133.046 459.995 133.407C459.995 133.769 460.558 133.62 461.245 133.077C462.687 131.937 483.986 126.371 490.995 125.302C492.37 125.093 495.52 124.59 497.995 124.185C503.549 123.276 550.998 123.205 556.495 124.098C558.695 124.455 561.845 125.025 563.495 125.364C565.145 125.703 567.62 126.138 568.995 126.331C570.37 126.524 571.495 126.765 571.495 126.865C571.495 126.966 572.814 127.201 574.427 127.388C576.04 127.575 578.515 128.205 579.927 128.787C581.339 129.37 583.62 130.092 584.995 130.392C588.859 131.234 590.472 131.649 590.745 131.868C590.883 131.979 591.445 132.183 591.995 132.32C592.545 132.457 593.332 132.68 593.745 132.813C594.158 132.947 594.832 133.004 595.245 132.938C595.658 132.873 595.995 133.27 595.995 133.82C595.995 134.37 596.332 134.736 596.745 134.634C597.158 134.532 599.256 135.215 601.408 136.151C614.759 141.961 617.751 143.368 619.995 144.89C621.37 145.823 624.522 147.536 627 148.698C629.477 149.859 632.72 151.937 634.206 153.315C635.692 154.693 637.265 155.827 637.701 155.836C638.138 155.845 640.07 157.2 641.995 158.847C643.92 160.494 646.62 162.783 647.995 163.934C655.851 170.51 674.995 190.318 674.995 191.87C674.995 192.275 675.67 192.865 676.495 193.182C677.32 193.498 677.995 194.24 677.995 194.831C677.995 195.421 678.457 196.448 679.023 197.112C681.398 199.901 689.995 213.054 689.995 213.9C689.995 214.406 690.472 214.82 691.054 214.82C691.636 214.82 691.858 215.232 691.547 215.735C691.236 216.238 691.323 216.8 691.739 216.985C692.404 217.28 694.811 221.94 700.385 233.724C701.271 235.596 701.995 237.733 701.995 238.474C701.995 239.214 702.445 239.82 702.995 239.82C703.545 239.82 703.995 240.845 703.995 242.097C703.995 243.35 704.696 245.375 705.552 246.597C706.408 247.82 706.803 248.82 706.429 248.82C706.056 248.82 706.31 249.495 706.995 250.32C707.68 251.145 707.905 251.82 707.495 251.82C707.085 251.82 707.217 252.383 707.788 253.07C708.358 253.758 708.792 254.545 708.752 254.82C708.564 256.101 710.259 263.431 710.948 264.32C711.375 264.87 711.983 267.12 712.299 269.32C712.615 271.52 713.151 274.445 713.489 275.82C714.465 279.795 714.911 282.869 715.523 289.82C715.838 293.395 716.305 296.938 716.56 297.693C717.52 300.524 716.862 331.355 715.719 337.103C715.596 337.722 715.945 338.265 716.495 338.31C717.045 338.354 718.508 338.953 719.745 339.641C720.982 340.328 721.995 340.594 721.995 340.233C721.995 339.871 722.67 340.135 723.495 340.82C724.32 341.505 724.995 341.73 724.995 341.32C724.995 340.91 725.67 341.135 726.495 341.82C727.32 342.505 727.995 342.769 727.995 342.407C727.995 342.046 728.895 342.231 729.995 342.82C731.924 343.852 732.529 343.208 732.112 340.57C732.047 340.157 732.365 339.82 732.818 339.82C733.533 339.82 736.109 334.643 741.688 322.004C742.493 320.18 743.368 317.494 743.632 316.035C743.897 314.576 744.592 312.806 745.177 312.101C745.761 311.396 745.905 310.82 745.495 310.82C745.085 310.82 745.245 310.222 745.852 309.492C746.458 308.761 747.089 307.298 747.253 306.242C747.417 305.185 747.879 303.798 748.278 303.159C748.676 302.521 749.083 300.721 749.18 299.159C749.278 297.598 749.694 295.863 750.104 295.305C750.514 294.746 751.12 292.271 751.451 289.805C751.782 287.338 752.243 284.42 752.474 283.32C755.859 267.24 756.388 233.754 753.526 216.82C752.5 210.751 752.041 208.127 751.516 205.32C751.207 203.67 750.796 201.42 750.602 200.32C750.408 199.22 750.141 198.095 750.007 197.82C749.874 197.545 749.69 196.87 749.598 196.32C748.564 190.089 747.66 186.732 746.891 186.256C746.38 185.94 746.233 185.243 746.565 184.707C746.896 184.171 746.622 183.077 745.958 182.276C745.293 181.475 745.042 180.82 745.398 180.82C745.755 180.82 745.348 179.47 744.495 177.82C743.642 176.17 743.234 174.82 743.591 174.82C743.947 174.82 743.68 174.145 742.995 173.32C742.31 172.495 742.042 171.82 742.398 171.82C742.755 171.82 742.348 170.47 741.495 168.82C740.642 167.17 740.234 165.82 740.591 165.82C740.947 165.82 740.738 165.216 740.125 164.478C739.513 163.74 739.307 162.84 739.669 162.478C740.031 162.116 739.802 161.82 739.161 161.82C738.519 161.82 737.995 160.899 737.995 159.772C737.995 157.376 728.432 136.709 726.88 135.749C726.299 135.39 725.841 134.697 725.861 134.208C725.881 133.72 724.935 131.745 723.758 129.82C722.581 127.895 720.742 124.745 719.672 122.82C717.279 118.515 710.946 109.193 708.124 105.82C706.973 104.445 705.685 102.867 705.263 102.314C701.584 97.4971 692.728 86.8811 692.182 86.6331C691.803 86.4611 689.695 84.2641 687.495 81.7511C682.878 76.4771 666.569 61.8201 665.318 61.8201C664.854 61.8201 663.914 60.9201 663.227 59.8201C662.54 58.7201 661.419 57.8121 660.737 57.8031C660.054 57.7931 658.435 56.6681 657.14 55.3031C655.845 53.9371 654.205 52.8201 653.497 52.8201C652.789 52.8201 651.95 52.1451 651.633 51.3201C651.317 50.4951 650.369 49.8201 649.526 49.8201C648.684 49.8201 647.995 49.3701 647.995 48.8201C647.995 48.2701 647.32 47.8201 646.495 47.8201C645.67 47.8201 644.995 47.4001 644.995 46.8871C644.995 46.3741 644.017 45.6441 642.822 45.2651C641.627 44.8861 639.758 43.7461 638.669 42.7321C637.581 41.7191 636.31 41.1251 635.844 41.4141C635.377 41.7021 634.995 41.5221 634.995 41.0131C634.995 39.9461 601.666 23.1401 597.995 22.3561C597.72 22.2971 596.482 21.6871 595.245 20.9991C594.008 20.3121 592.995 20.0001 592.995 20.3051C592.995 20.6111 591.195 19.9421 588.995 18.8201C586.795 17.6981 584.995 17.0691 584.995 17.4221C584.995 17.7761 584.32 17.5051 583.495 16.8201C582.67 16.1351 581.995 15.9101 581.995 16.3201C581.995 16.7301 581.32 16.5051 580.495 15.8201C579.67 15.1351 578.995 14.9101 578.995 15.3201C578.995 15.7301 578.32 15.5051 577.495 14.8201C576.67 14.1351 575.995 13.9101 575.995 14.3201C575.995 14.7301 575.309 14.4961 574.471 13.8001C573.633 13.1041 572.675 12.8061 572.344 13.1381C572.013 13.4691 570.56 13.1451 569.117 12.4171C567.674 11.6901 565.973 11.2811 565.336 11.5101C564.699 11.7391 563.885 11.4521 563.528 10.8731C563.17 10.2941 561.749 9.8201 560.37 9.8201C558.992 9.8201 557.106 9.4151 556.179 8.9201C555.253 8.4251 552.695 7.7051 550.495 7.3201C548.295 6.9351 545.595 6.4641 544.495 6.2741C543.395 6.0831 541.37 5.6631 539.995 5.3401C538.62 5.0171 536.145 4.5481 534.495 4.2981C532.845 4.0481 530.359 3.6641 528.971 3.4451C523.79 2.6261 516.324 1.6721 510.995 1.1491C503.487 0.412104 468.518 -0.367896 467.952 0.189104Z" fill="#4CC7F2"/>
<path fill-rule="evenodd" clip-rule="evenodd" d="M681.995 76.1981C681.995 76.4051 682.783 77.1931 683.745 77.9481C685.331 79.1911 685.365 79.1561 684.122 77.5701C682.815 75.9041 681.995 75.3751 681.995 76.1981ZM247.464 102.07L241.495 108.32L247.745 102.351C253.551 96.8071 254.453 95.8201 253.714 95.8201C253.559 95.8201 250.746 98.6331 247.464 102.07ZM656.995 172.133C656.995 172.305 658.457 173.768 660.245 175.383L663.495 178.32L660.557 175.07C657.819 172.041 656.995 171.36 656.995 172.133ZM363.457 595.573C367.981 600.356 370.837 602.745 368.126 599.478C367.514 598.74 367.233 597.84 367.504 597.478C367.774 597.116 367.685 597.054 367.307 597.34C366.929 597.627 364.792 596.166 362.557 594.094C359.596 591.348 359.841 591.749 363.457 595.573ZM1772.49 632.82C1776.31 636.67 1779.67 639.82 1779.94 639.82C1780.22 639.82 1777.31 636.67 1773.49 632.82C1769.67 628.97 1766.32 625.82 1766.05 625.82C1765.77 625.82 1768.67 628.97 1772.49 632.82ZM1743.99 676.198C1743.99 676.405 1744.78 677.193 1745.74 677.948C1747.33 679.191 1747.37 679.156 1746.12 677.57C1744.82 675.904 1743.99 675.375 1743.99 676.198ZM1762.99 695.198C1762.99 695.405 1763.78 696.193 1764.74 696.948C1766.33 698.191 1766.37 698.156 1765.12 696.57C1763.82 694.904 1762.99 694.375 1762.99 695.198Z" fill="#50C7EF"/>
<path fill-rule="evenodd" clip-rule="evenodd" d="M681.995 76.1981C681.995 76.4051 682.783 77.1931 683.745 77.9481C685.331 79.1911 685.365 79.1561 684.122 77.5701C682.815 75.9041 681.995 75.3751 681.995 76.1981ZM247.457 102.07L242.495 107.32L247.745 102.358C252.623 97.7461 253.454 96.8201 252.707 96.8201C252.549 96.8201 250.187 99.1821 247.457 102.07ZM656.995 172.133C656.995 172.305 658.457 173.768 660.245 175.383L663.495 178.32L660.557 175.07C657.819 172.041 656.995 171.36 656.995 172.133ZM363.495 595.82C366.204 598.57 368.644 600.82 368.919 600.82C369.194 600.82 367.204 598.57 364.495 595.82C361.786 593.07 359.345 590.82 359.07 590.82C358.795 590.82 360.786 593.07 363.495 595.82ZM1772.49 632.82C1776.31 636.67 1779.67 639.82 1779.94 639.82C1780.22 639.82 1777.31 636.67 1773.49 632.82C1769.67 628.97 1766.32 625.82 1766.05 625.82C1765.77 625.82 1768.67 628.97 1772.49 632.82ZM1743.99 676.198C1743.99 676.405 1744.78 677.193 1745.74 677.948C1747.33 679.191 1747.37 679.156 1746.12 677.57C1744.82 675.904 1743.99 675.375 1743.99 676.198ZM1762.99 695.198C1762.99 695.405 1763.78 696.193 1764.74 696.948C1766.33 698.191 1766.37 698.156 1765.12 696.57C1763.82 694.904 1762.99 694.375 1762.99 695.198Z" fill="#4AC5F4"/>
</svg>